<svg width="800" height="800" viewBox="0 0 800 800" fill="none" xmlns="http://www.w3.org/2000/svg">
<g clip-path="url(#clip0_1012_4)">
<path d="M700 233.333C691.16 233.333 682.681 229.821 676.43 223.57C670.179 217.319 666.667 208.84 666.667 200V133.333H600C591.16 133.333 582.681 129.821 576.43 123.57C570.179 117.319 566.667 108.84 566.667 99.9998C566.667 91.1593 570.179 82.6808 576.43 76.4296C582.681 70.1784 591.16 66.6665 600 66.6665H700C708.841 66.6665 717.319 70.1784 723.57 76.4296C729.822 82.6808 733.333 91.1593 733.333 99.9998V200C733.333 208.84 729.822 217.319 723.57 223.57C717.319 229.821 708.841 233.333 700 233.333Z" fill="white"/>
<path d="M700 533.333H600C591.16 533.333 582.681 529.821 576.43 523.57C570.179 517.319 566.667 508.84 566.667 500C566.667 491.159 570.179 482.681 576.43 476.43C582.681 470.178 591.16 466.667 600 466.667H666.667V400C666.667 391.159 670.179 382.681 676.43 376.43C682.681 370.178 691.16 366.667 700 366.667C708.841 366.667 717.319 370.178 723.57 376.43C729.822 382.681 733.333 391.159 733.333 400V500C733.333 508.84 729.822 517.319 723.57 523.57C717.319 529.821 708.841 533.333 700 533.333Z" fill="white"/>
<path d="M100 233.333C91.1595 233.333 82.6811 229.821 76.4299 223.57C70.1786 217.319 66.6667 208.84 66.6667 200V99.9998C66.6667 91.1593 70.1786 82.6808 76.4299 76.4296C82.6811 70.1784 91.1595 66.6665 100 66.6665H200C208.841 66.6665 217.319 70.1784 223.57 76.4296C229.822 82.6808 233.333 91.1593 233.333 99.9998C233.333 108.84 229.822 117.319 223.57 123.57C217.319 129.821 208.841 133.333 200 133.333H133.333V200C133.333 208.84 129.822 217.319 123.57 223.57C117.319 229.821 108.841 233.333 100 233.333Z" fill="white"/>
<path d="M200 533.333H100C91.1595 533.333 82.6811 529.821 76.4299 523.57C70.1786 517.319 66.6667 508.84 66.6667 500V400C66.6667 391.159 70.1786 382.681 76.4299 376.43C82.6811 370.178 91.1595 366.667 100 366.667C108.841 366.667 117.319 370.178 123.57 376.43C129.822 382.681 133.333 391.159 133.333 400V466.667H200C208.841 466.667 217.319 470.178 223.57 476.43C229.822 482.681 233.333 491.159 233.333 500C233.333 508.84 229.822 517.319 223.57 523.57C217.319 529.821 208.841 533.333 200 533.333Z" fill="white"/>
<path d="M600 766.666H200C191.16 766.666 182.681 763.154 176.43 756.903C170.179 750.652 166.667 742.173 166.667 733.333V601.666L183.333 591.666C249.153 553.469 323.9 533.352 400 533.352C476.1 533.352 550.847 553.469 616.667 591.666L633.333 601.666V733.333C633.333 742.173 629.822 750.652 623.57 756.903C617.319 763.154 608.841 766.666 600 766.666ZM233.333 700H566.667V640C515.057 613.663 457.941 599.932 400 599.932C342.059 599.932 284.943 613.663 233.333 640V700Z" fill="white"/>
<path d="M400 233.333C416.482 233.333 432.593 238.221 446.298 247.377C460.002 256.534 470.683 269.549 476.99 284.776C483.297 300.003 484.948 316.759 481.732 332.924C478.517 349.089 470.58 363.938 458.926 375.592C447.271 387.246 432.423 395.183 416.258 398.399C400.093 401.614 383.337 399.964 368.11 393.656C352.883 387.349 339.868 376.668 330.711 362.964C321.554 349.26 316.667 333.148 316.667 316.666C316.667 294.565 325.446 273.369 341.074 257.741C356.703 242.113 377.899 233.333 400 233.333ZM400 166.667C370.333 166.667 341.332 175.464 316.665 191.946C291.997 208.428 272.771 231.855 261.418 259.264C250.065 286.673 247.094 316.833 252.882 345.93C258.67 375.027 272.956 401.755 293.934 422.732C314.912 443.71 341.639 457.997 370.736 463.784C399.834 469.572 429.994 466.602 457.403 455.248C484.811 443.895 508.238 424.669 524.72 400.002C541.203 375.335 550 346.334 550 316.666C550 276.884 534.197 238.731 506.066 210.6C477.936 182.47 439.783 166.667 400 166.667Z" fill="white"/>
</g>
<defs>
<clipPath id="clip0_1012_4">
<rect width="800" height="800" fill="white"/>
</clipPath>
</defs>
</svg>
